<?xml version="1.0" encoding="UTF-8" standalone="no"?><svg xmlns:rdf="http://www.w3.org/1999/02/22-rdf-syntax-ns#" xmlns="http://www.w3.org/2000/svg" height="708.66" width="708.66" version="1.1" xmlns:cc="http://creativecommons.org/ns#" xmlns:dc="http://purl.org/dc/elements/1.1/"><defs><filter id="filter5759" color-interpolation-filters="sRGB" width="1.8" y="-0.40000000000000002" x="-0.40000000000000002" height="1.8"><feGaussianBlur stdDeviation="20.113809523809522" result="result91"/><feFlood result="result92" in="SourceGraphic" flood-color="rgb(120,163,204)"/><feComposite in2="result92" in="SourceGraphic"/><feGaussianBlur stdDeviation="33.86904761904762" result="result93"/><feComposite operator="in" result="result94" in2="SourceGraphic" in="result93"/><feComposite in2="result94" in="result91"/></filter><filter id="filter5847" width="1.8" y="-0.40000000000000002" x="-0.40000000000000002" height="1.8" color-interpolation-filters="sRGB"><feGaussianBlur stdDeviation="20.113809523809522" result="result91"/><feFlood flood-color="rgb(73,126,181)" result="result92" in="SourceGraphic"/><feComposite in2="result92" in="SourceGraphic"/><feGaussianBlur stdDeviation="33.86904761904762" result="result93"/><feComposite operator="in" result="result94" in2="SourceGraphic" in="result93"/><feComposite in2="result94" in="result91"/></filter><filter id="filter5861"><feFlood result="result1" flood-color="rgb(224,224,224)"/><feComposite result="result2" in2="result1" in="SourceGraphic"/><feGaussianBlur stdDeviation="11.119999999999999" result="result3"/><feComposite operator="in" in2="SourceGraphic"/></filter></defs><metadata id="metadata7"><rdf:RDF><cc:Work rdf:about=""><dc:format>image/svg+xml</dc:format><dc:type rdf:resource="http://purl.org/dc/dcmitype/StillImage" /><dc:title>Logo</dc:title><dc:creator><cc:Agent><dc:title>Anthony Zhang &lt;azhang9@gmail.com&gt; (uberi.github.io)</dc:title></cc:Agent></dc:creator><dc:date>2014</dc:date></cc:Work></rdf:RDF></metadata><g transform="translate(0,-343.69947)"><path d="M354.34,70.875c-156.55,0-283.46,126.92-283.46,283.46,0,156.56,126.92,283.44,283.46,283.44,156.56,0,283.44-126.88,283.44-283.44,0-156.55-126.88-283.46-283.44-283.46z" transform="translate(0,343.69947)" filter="url(#filter5861)" fill="#000"/><path d="M354.34,115.62c-84.38,0-158.54,43.81-201,109.91h402c-42.44-66.1-116.61-109.91-201-109.91z" fill-rule="evenodd" transform="translate(0,343.69947)" filter="url(#filter5759)" fill="#fafffe"/><path d="M129.47,274.09c-8.96,25.09-13.85,52.1-13.85,80.25,0,131.83,106.9,238.69,238.72,238.69,131.83,0,238.69-106.86,238.69-238.69,0-28.16-4.89-55.16-13.84-80.25h-449.72z" fill-rule="evenodd" transform="translate(0,343.69947)" filter="url(#filter5847)" fill="#e2f0fe"/></g></svg>