<svg xmlns="http://www.w3.org/2000/svg" xmlns:xlink="http://www.w3.org/1999/xlink" xml:space="preserve" version="1.1" style="shape-rendering:geometricPrecision;text-rendering:geometricPrecision;image-rendering:optimizeQuality;" viewBox="0 0 847 847" x="0px" y="0px" fill-rule="evenodd" clip-rule="evenodd"><defs><style type="text/css">
   
    .fil0 {fill:black}
   
  </style></defs><g><path class="fil0" d="M82 8l683 0c40,0 73,33 73,74l0 683c0,40 -33,73 -73,73l-683 0c-41,0 -74,-33 -74,-73l0 -683c0,-41 33,-74 74,-74zm581 232l23 23 -322 321 -22 22 -22 -22 -159 -158 22 -23 159 159 321 -322zm-581 -196l683 0c21,0 38,17 38,38l0 683c0,21 -17,38 -38,38l-683 0c-21,0 -38,-17 -38,-38l0 -683c0,-21 17,-38 38,-38z"></path></g></svg>